<?xml version="1.0" encoding="UTF-8"?>
<svg version="1.1" xmlns="http://www.w3.org/2000/svg" width="334" height="204">
<path d="M0 0 C110.22 0 220.44 0 334 0 C334 67.32 334 134.64 334 204 C223.78 204 113.56 204 0 204 C0 136.68 0 69.36 0 0 Z " fill="#FEEBBE" transform="translate(0,0)"/>
<path d="M0 0 C13.86 0 27.72 0 42 0 C42 13.86 42 27.72 42 42 C28.14 42 14.28 42 0 42 C0 28.14 0 14.28 0 0 Z " fill="#F6E4B7" transform="translate(111,99)"/>
<path d="M0 0 C13.86 0 27.72 0 42 0 C42 13.86 42 27.72 42 42 C28.14 42 14.28 42 0 42 C0 28.14 0 14.28 0 0 Z " fill="#EFDFB6" transform="translate(177,32)"/>
<path d="M0 0 C13.86 0 27.72 0 42 0 C42 13.86 42 27.72 42 42 C28.14 42 14.28 42 0 42 C0 28.14 0 14.28 0 0 Z " fill="#EFDEB3" transform="translate(111,32)"/>
<path d="M0 0 C13.86 0 27.72 0 42 0 C42 13.86 42 27.72 42 42 C28.14 42 14.28 42 0 42 C0 28.14 0 14.28 0 0 Z M3 4 C3 15.55 3 27.1 3 39 C14.55 39 26.1 39 38 39 C38 27.45 38 15.9 38 4 C26.45 4 14.9 4 3 4 Z " fill="#3C3B37" transform="translate(111,99)"/>
<path d="M0 0 C0.33 0.66 0.66 1.32 1 2 C2.65 2 4.3 2 6 2 C6 1.34 6 0.68 6 0 C9.87930158 1.80110431 13.06530284 3.4421714 15.3125 7.1875 C16.40979781 11.67644558 16.30029829 15.82188301 13.91796875 19.8125 C11.24024577 23.17785577 9.20686346 24.71071078 4.9140625 25.2734375 C0.59480999 25.46507669 -1.36489166 25.47295302 -4.9375 22.8125 C-7.56393815 19.23099344 -8.69746349 16.51268256 -9.5625 12.1875 C-8.69937588 7.29646335 -5.53630325 4.35228747 -2 1 C-1.34 0.67 -0.68 0.34 0 0 Z " fill="#34322E" transform="translate(74,155)"/>
<path d="M0 0 C1.15113281 -0.01417969 2.30226563 -0.02835938 3.48828125 -0.04296875 C6.53207689 0.17630346 8.1881556 0.49554476 10.6875 2.1875 C11.90891122 4.63032245 11.75417007 6.15402786 11.6875 8.875 C11.63036323 12.17464826 11.80301588 14.78433205 12.4375 18.0625 C12.6875 21.1875 12.6875 21.1875 10.9375 23.5625 C7.16526129 26.28689462 4.09148839 26.32341323 -0.4375 26.3125 C-1.51257813 26.31507813 -2.58765625 26.31765625 -3.6953125 26.3203125 C-6.3125 26.1875 -6.3125 26.1875 -7.3125 25.1875 C-7.41196453 23.41890807 -7.44330217 21.64638549 -7.4453125 19.875 C-7.44660156 18.79992187 -7.44789063 17.72484375 -7.44921875 16.6171875 C-7.44341797 14.91949219 -7.44341797 14.91949219 -7.4375 13.1875 C-7.44136719 12.05570313 -7.44523438 10.92390625 -7.44921875 9.7578125 C-7.44792969 8.68273437 -7.44664062 7.60765625 -7.4453125 6.5 C-7.44418457 5.50613281 -7.44305664 4.51226562 -7.44189453 3.48828125 C-7.17976828 -1.17262033 -3.98129025 0.02214288 0 0 Z " fill="#42403C" transform="translate(255.3125,154.8125)"/>
<path d="M0 0 C1.15113281 -0.01417969 2.30226562 -0.02835938 3.48828125 -0.04296875 C6.53207689 0.17630346 8.1881556 0.49554476 10.6875 2.1875 C11.90891122 4.63032245 11.75417007 6.15402786 11.6875 8.875 C11.63036323 12.17464826 11.80301588 14.78433205 12.4375 18.0625 C12.6875 21.1875 12.6875 21.1875 10.9375 23.5625 C7.12830441 26.31358571 4.06869987 26.29912581 -0.5 26.25 C-2.13001953 26.23646484 -2.13001953 26.23646484 -3.79296875 26.22265625 C-4.62441406 26.21105469 -5.45585937 26.19945312 -6.3125 26.1875 C-7.58387774 23.64474451 -7.441925 21.83941799 -7.4453125 18.99609375 C-7.44660156 17.96935547 -7.44789063 16.94261719 -7.44921875 15.88476562 C-7.44535156 14.80904297 -7.44148437 13.73332031 -7.4375 12.625 C-7.44136719 11.54541016 -7.44523438 10.46582031 -7.44921875 9.35351562 C-7.44792969 8.32806641 -7.44664062 7.30261719 -7.4453125 6.24609375 C-7.44418457 5.30048584 -7.44305664 4.35487793 -7.44189453 3.38061523 C-7.17297565 -1.17730603 -3.85456985 0.0214381 0 0 Z " fill="#3B3A36" transform="translate(164.3125,154.8125)"/>
<path d="M0 0 C13.86 0 27.72 0 42 0 C42 13.86 42 27.72 42 42 C28.14 42 14.28 42 0 42 C0 28.14 0 14.28 0 0 Z M3 3 C3 14.88 3 26.76 3 39 C14.88 39 26.76 39 39 39 C39 27.12 39 15.24 39 3 C27.12 3 15.24 3 3 3 Z " fill="#383837" transform="translate(177,32)"/>
<path d="M0 0 C13.86 0 27.72 0 42 0 C42 13.86 42 27.72 42 42 C28.14 42 14.28 42 0 42 C0 28.14 0 14.28 0 0 Z M3 3 C3 14.88 3 26.76 3 39 C14.88 39 26.76 39 39 39 C39 27.12 39 15.24 39 3 C27.12 3 15.24 3 3 3 Z " fill="#313130" transform="translate(111,32)"/>
<path d="M0 0 C2.64 0 5.28 0 8 0 C9.17908109 3.39165005 10.34103966 6.78892712 11.5 10.1875 C11.83386719 11.14720703 12.16773438 12.10691406 12.51171875 13.09570312 C12.82753906 14.02705078 13.14335937 14.95839844 13.46875 15.91796875 C13.76201172 16.77156982 14.05527344 17.6251709 14.35742188 18.50463867 C15.02681173 21.10411957 15.11719018 23.32764529 15 26 C13.35 26 11.7 26 10 26 C9.67 23.69 9.34 21.38 9 19 C6.03 19.33 3.06 19.66 0 20 C-0.66 21.98 -1.32 23.96 -2 26 C-3.65 26 -5.3 26 -7 26 C-6.41398518 20.85239254 -5.22749425 16.20377657 -3.5 11.3125 C-1.53243962 5.72137446 -1.53243962 5.72137446 0 0 Z " fill="#363532" transform="translate(132,155)"/>
<path d="M0 0 C5.94 0 11.88 0 18 0 C18 5.94 18 11.88 18 18 C12.06 18 6.12 18 0 18 C0 12.06 0 6.12 0 0 Z " fill="#2B2B2B" transform="translate(123,111)"/>
<path d="M0 0 C5.94 0 11.88 0 18 0 C18 5.94 18 11.88 18 18 C12.06 18 6.12 18 0 18 C0 12.06 0 6.12 0 0 Z " fill="#353535" transform="translate(189,44)"/>
<path d="M0 0 C5.94 0 11.88 0 18 0 C18 5.94 18 11.88 18 18 C12.06 18 6.12 18 0 18 C0 12.06 0 6.12 0 0 Z " fill="#2E2E2E" transform="translate(123,44)"/>
<path d="M0 0 C5.61 0 11.22 0 17 0 C17 1.32 17 2.64 17 4 C12.71 4 8.42 4 4 4 C4 6.31 4 8.62 4 11 C5.98 11 7.96 11 10 11 C10.33 12.32 10.66 13.64 11 15 C9.02 15.33 7.04 15.66 5 16 C4.67 17.65 4.34 19.3 4 21 C8.62 21 13.24 21 18 21 C18 22.98 18 24.96 18 27 C12.06 26.67 6.12 26.34 0 26 C0 17.42 0 8.84 0 0 Z " fill="#3A3A38" transform="translate(278,155)"/>
<path d="M0 0 C1.32 0 2.64 0 4 0 C4.16435547 1.89685547 4.16435547 1.89685547 4.33203125 3.83203125 C4.49148775 5.49225486 4.65168251 7.15240767 4.8125 8.8125 C4.88275391 9.64587891 4.95300781 10.47925781 5.02539062 11.33789062 C5.10595703 12.14033203 5.18652344 12.94277344 5.26953125 13.76953125 C5.33760986 14.50792236 5.40568848 15.24631348 5.47583008 16.00708008 C6.12362989 18.47004694 6.97338023 19.48087388 9 21 C11.65466049 20.76956136 11.65466049 20.76956136 14 20 C15.23839599 13.34362157 15.09139136 6.7528064 15 0 C16.65 0 18.3 0 20 0 C20.1630807 3.02303295 20.28136405 6.03716706 20.375 9.0625 C20.45041016 10.33383789 20.45041016 10.33383789 20.52734375 11.63085938 C20.63687886 16.35912505 20.25992017 19.3381636 17.265625 23.109375 C15.27343435 25.11539622 14.35583568 25.91075319 11.5859375 26.60546875 C6.91688222 25.72280282 3.94176514 25.04492707 1 21 C-0.17426264 18.65147472 -0.11508173 17.26225935 -0.09765625 14.6484375 C-0.09443359 13.79765625 -0.09121094 12.946875 -0.08789062 12.0703125 C-0.07951172 11.18085938 -0.07113281 10.29140625 -0.0625 9.375 C-0.05798828 8.4778125 -0.05347656 7.580625 -0.04882812 6.65625 C-0.03702591 4.43743352 -0.02056155 2.21874982 0 0 Z " fill="#46433E" transform="translate(218,155)"/>
<path d="M0 0 C0.33 0.99 0.66 1.98 1 3 C1.66 3 2.32 3 3 3 C2.34 4.65 1.68 6.3 1 8 C0.01 7.34 -0.98 6.68 -2 6 C-4.21426858 5.64730321 -4.21426858 5.64730321 -6.5625 5.6875 C-7.34753906 5.67074219 -8.13257813 5.65398437 -8.94140625 5.63671875 C-9.62074219 5.75660156 -10.30007812 5.87648437 -11 6 C-13.34168764 9.51253146 -13.49623677 10.86469356 -13 15 C-11.12230858 17.84920053 -11.12230858 17.84920053 -9 20 C-5.31733897 19.40049704 -1.65456815 18.75241109 2 18 C2 22 2 22 -0.0625 24.25 C-3.70208617 26.4182641 -5.82351542 26.4556165 -10 26 C-13.10389817 25.11317195 -14.06003817 23.92966958 -16.1875 21.4375 C-18.43291237 17.17895929 -19.82175481 13.83571099 -19 9 C-14.58040894 0.52055204 -9.1401655 -1.36094376 0 0 Z " fill="#3D3C38" transform="translate(205,155)"/>
<path d="M0 0 C2.73101248 0.63926566 3.7194119 1.41863547 5.453125 3.57421875 C4.793125 5.22421875 4.133125 6.87421875 3.453125 8.57421875 C2.793125 8.57421875 2.133125 8.57421875 1.453125 8.57421875 C1.453125 7.91421875 1.453125 7.25421875 1.453125 6.57421875 C-0.17151342 6.52026397 -1.79666041 6.4814468 -3.421875 6.44921875 C-4.32679687 6.42601562 -5.23171875 6.4028125 -6.1640625 6.37890625 C-8.73494494 6.33097039 -8.73494494 6.33097039 -10.546875 8.57421875 C-10.7440167 12.71419442 -10.85452978 15.65125442 -9.546875 19.57421875 C-4.51175601 20.58124255 -1.30740462 20.54809688 3.453125 18.57421875 C4.113125 19.56421875 4.773125 20.55421875 5.453125 21.57421875 C0.50069315 26.40585958 0.50069315 26.40585958 -4.046875 27.13671875 C-8.24834398 26.46148266 -10.33106084 25.3515128 -13.546875 22.57421875 C-16.01908134 19.06528072 -16.53307132 17.00213284 -16.671875 12.69921875 C-15.86350195 8.33737252 -13.81330523 5.27958802 -10.7890625 2.0859375 C-7.26883621 -0.28745549 -4.14283974 -0.16779658 0 0 Z " fill="#302E2B" transform="translate(50.546875,154.42578125)"/>
<path d="M0 0 C3.19822851 1.71612261 4.71446026 3.24754813 6.5625 6.375 C6.5625 10.10943628 5.78273799 12.02104609 3.8125 15.1875 C1.5625 17.375 1.5625 17.375 -0.875 18.5 C-3.4375 18.375 -3.4375 18.375 -6.1875 16 C-6.93 15.13375 -7.6725 14.2675 -8.4375 13.375 C-8.7675 13.045 -9.0975 12.715 -9.4375 12.375 C-10.02813136 5.16929735 -10.02813136 5.16929735 -7.625 1.9375 C-4.8696859 -0.0305815 -3.34487722 -0.85766082 0 0 Z " fill="#F8E5B6" transform="translate(79.4375,159.625)"/>
<path d="M0 0 C1.65 0 3.3 0 5 0 C5 7.26 5 14.52 5 22 C8.3 22 11.6 22 15 22 C15.66 22.33 16.32 22.66 17 23 C17 24.32 17 25.64 17 27 C11.39 27 5.78 27 0 27 C0 18.09 0 9.18 0 0 Z " fill="#3A3833" transform="translate(99,154)"/>
<path d="M0 0 C1.32 0 2.64 0 4 0 C4 6.27 4 12.54 4 19 C-3.59 19 -11.18 19 -19 19 C-19 18.01 -19 17.02 -19 16 C-17.35 16 -15.7 16 -14 16 C-14 12.7 -14 9.4 -14 6 C-12.68 6 -11.36 6 -10 6 C-10 9.3 -10 12.6 -10 16 C-6.7 16 -3.4 16 0 16 C0 10.72 0 5.44 0 0 Z " fill="#45433E" transform="translate(210,117)"/>
<path d="M0 0 C0.99 0 1.98 0 3 0 C3 2.31 3 4.62 3 7 C5.31 7 7.62 7 10 7 C10 7.99 10 8.98 10 10 C7.69 10 5.38 10 3 10 C3 17.92 3 25.84 3 34 C5.31 34 7.62 34 10 34 C10 34.99 10 35.98 10 37 C6.7 37 3.4 37 0 37 C0 24.79 0 12.58 0 0 Z " fill="#2F2F2E" transform="translate(164,99)"/>
<path d="M0 0 C10.56 0 21.12 0 32 0 C32 0.99 32 1.98 32 3 C21.44 3 10.88 3 0 3 C0 2.01 0 1.02 0 0 Z " fill="#2E2E2E" transform="translate(129,85)"/>
<path d="M0 0 C0.99 0 1.98 0 3 0 C3 2.31 3 4.62 3 7 C4.98 7 6.96 7 9 7 C9 7.99 9 8.98 9 10 C3.39 10 -2.22 10 -8 10 C-8 8.68 -8 7.36 -8 6 C-5.36 6 -2.72 6 0 6 C0 4.02 0 2.04 0 0 Z " fill="#46443F" transform="translate(189,97)"/>
<path d="M0 0 C2.64 0 5.28 0 8 0 C9 3 9 3 8 6 C5.36 6 2.72 6 0 6 C0 4.02 0 2.04 0 0 Z " fill="#F3E1B7" transform="translate(254,170)"/>
<path d="M0 0 C2.64 0 5.28 0 8 0 C9 3 9 3 8 6 C5.36 6 2.72 6 0 6 C0 4.02 0 2.04 0 0 Z " fill="#F2E0B5" transform="translate(163,170)"/>
<path d="M0 0 C-0.33 1.65 -0.66 3.3 -1 5 C-3.31 5.33 -5.62 5.66 -8 6 C-8 4.02 -8 2.04 -8 0 C-4.71303767 -0.79953138 -3.28976808 -1.09658936 0 0 Z " fill="#F3E2B7" transform="translate(262,160)"/>
<path d="M0 0 C-0.33 1.65 -0.66 3.3 -1 5 C-3.31 5.33 -5.62 5.66 -8 6 C-8 4.02 -8 2.04 -8 0 C-4.71303767 -0.79953138 -3.28976808 -1.09658936 0 0 Z " fill="#F2E0B5" transform="translate(171,160)"/>
<path d="M0 0 C2.97 0 5.94 0 9 0 C9 1.65 9 3.3 9 5 C6.03 5 3.06 5 0 5 C0 3.35 0 1.7 0 0 Z " fill="#D6C7A3" transform="translate(169,89)"/>
<path d="M0 0 C0.99 0 1.98 0 3 0 C3 4.62 3 9.24 3 14 C2.01 14 1.02 14 0 14 C0 9.38 0 4.76 0 0 Z " fill="#323232" transform="translate(164,34)"/>
<path d="M0 0 C0.99 0 1.98 0 3 0 C3.05449838 1.72880982 3.09301688 3.45812712 3.125 5.1875 C3.14820313 6.15042969 3.17140625 7.11335937 3.1953125 8.10546875 C2.9913544 11.12812778 2.26874632 13.26769985 1 16 C0.67 16 0.34 16 0 16 C0 10.72 0 5.44 0 0 Z " fill="#58544B" transform="translate(218,158)"/>
<path d="M0 0 C3.63 0 7.26 0 11 0 C11 0.99 11 1.98 11 3 C7.37 3 3.74 3 0 3 C0 2.01 0 1.02 0 0 Z " fill="#2B2B2B" transform="translate(113,85)"/>
<path d="M0 0 C1.65 0 3.3 0 5 0 C5 1.98 5 3.96 5 6 C3.35 6 1.7 6 0 6 C0 4.02 0 2.04 0 0 Z " fill="#877F6C" transform="translate(163,71)"/>
<path d="M0 0 C0.99 0 1.98 0 3 0 C3 3.3 3 6.6 3 10 C2.01 10 1.02 10 0 10 C0 6.7 0 3.4 0 0 Z " fill="#353534" transform="translate(164,57)"/>
<path d="M0 0 C0 0.33 0 0.66 0 1 C2.31 1.33 4.62 1.66 7 2 C7 2.33 7 2.66 7 3 C1.39 3 -4.22 3 -10 3 C-9 1 -9 1 -7.25 0.375 C-4.79549443 -0.03408426 -2.4840589 -0.06900164 0 0 Z " fill="#756E5C" transform="translate(109,178)"/>
<path d="M0 0 C2.12508244 3.18762365 2.5020163 5.26512223 3 9 C1.35 9 -0.3 9 -2 9 C-1.51421457 5.87709365 -1.0013988 3.00419641 0 0 Z " fill="#F1DFB3" transform="translate(136,160)"/>
<path d="M0 0 C1.32 0 2.64 0 4 0 C4 5.28 4 10.56 4 16 C3.34 15.34 2.68 14.68 2 14 C2.0234375 11.3984375 2.0234375 11.3984375 2.375 8.375 C2.48585937 7.37210938 2.59671875 6.36921875 2.7109375 5.3359375 C2.80632812 4.56507813 2.90171875 3.79421875 3 3 C2.01 3 1.02 3 0 3 C0 2.01 0 1.02 0 0 Z " fill="#323131" transform="translate(218,155)"/>
<path d="M0 0 C2.64 0 5.28 0 8 0 C8 0.99 8 1.98 8 3 C5.36 3 2.72 3 0 3 C0 2.01 0 1.02 0 0 Z " fill="#313131" transform="translate(186,115)"/>
<path d="M0 0 C1.32 0 2.64 0 4 0 C4 1.98 4 3.96 4 6 C2.68 6 1.36 6 0 6 C0 4.02 0 2.04 0 0 Z " fill="#525048" transform="translate(210,101)"/>
<path d="M0 0 C1.98 0 3.96 0 6 0 C6 1.32 6 2.64 6 4 C4.02 4 2.04 4 0 4 C0 2.68 0 1.36 0 0 Z " fill="#535049" transform="translate(179,82)"/>
<path d="M0 0 C2.31 0 4.62 0 7 0 C7 0.99 7 1.98 7 3 C4.69 3 2.38 3 0 3 C0 2.01 0 1.02 0 0 Z " fill="#303030" transform="translate(170,90)"/>
<path d="M0 0 C2.31 0 4.62 0 7 0 C7 0.99 7 1.98 7 3 C4.69 3 2.38 3 0 3 C0 2.01 0 1.02 0 0 Z " fill="#3A3938" transform="translate(208,85)"/>
<path d="M0 0 C1.65 0 3.3 0 5 0 C5 1.32 5 2.64 5 4 C3.35 4 1.7 4 0 4 C0 2.68 0 1.36 0 0 Z " fill="#5E5A51" transform="translate(196,87)"/>
<path d="M0 0 C1.98 0 3.96 0 6 0 C6 0.99 6 1.98 6 3 C4.02 3 2.04 3 0 3 C0 2.01 0 1.02 0 0 Z " fill="#2F2F2F" transform="translate(175,124)"/>
</svg>
